#!OML:ASF F:\VICON\USERDATA\INSTALL\rory3\rory3.ASF
:FULLY-SPECIFIED
:DEGREES
269
root -0.194342 18.03 3.98378 0.681068 -48.5873 -3.62417
lowerback 10.245 0.997709 1.59918
upperback 1.05109 1.56021 1.5969
thorax -4.65136 0.743197 0.544243
lowerneck -19.8373 -4.68975 -10.0765
upperneck 24.81 -5.59704 7.36384
head 11.9463 -2.58428 3.53858
rclavicle 4.72859e-014 -1.17283e-014
rhumerus -35.9591 -15.1311 -78.2358
rradius 29.0854
rwrist 11.5381
rhand -10.389 9.19609
rfingers 7.12502
rthumb 15.609 -20.1941
lclavicle 4.72859e-014 -1.17283e-014
lhumerus -35.5071 1.0664 84.8732
lradius 33.8778
lwrist -8.09444
lhand -13.6888 25.6537
lfingers 7.12502
lthumb 12.4292 55.2642
rfemur -6.96376 -0.372915 27.5637
rtibia 23.9818
rfoot -12.2016 5.23722
rtoes 13.4546
lfemur -14.7179 1.94035 -16.4461
ltibia 60.8848
lfoot -3.61757 -10.6826
ltoes -15.3859
270
root -0.298312 18.0116 4.07687 0.943647 -48.6553 -3.97534
lowerback 10.223 1.08081 1.91793
upperback 1.05904 1.70551 1.60583
thorax -4.62162 0.808949 0.354615
lowerneck -19.8463 -4.73363 -10.2046
upperneck 24.8878 -5.67466 7.54204
head 11.9969 -2.6096 3.61714
rclavicle 6.95995e-014 2.38542e-015
rhumerus -35.666 -14.7438 -78.4164
rradius 29.4808
rwrist 11.2029
rhand -10.3008 9.39722
rfingers 7.12502
rthumb 15.694 -19.9863
lclavicle 6.95995e-014 2.38542e-015
lhumerus -35.4459 1.03185 84.8946
lradius 34.011
lwrist -8.04684
lhand -13.8411 25.5723
lfingers 7.12502
lthumb 12.2823 55.1917
rfemur -6.59259 -0.365686 27.8539
rtibia 24.2997
rfoot -12.8915 5.15733
rtoes 15.3332
lfemur -15.7135 2.11172 -16.2774
ltibia 60.5743
lfoot -4.82135 -10.1861
ltoes -16.4109
271
root -0.399445 17.9898 4.17055 1.14412 -48.6476 -4.33907
lowerback 10.3289 1.10271 2.27179
upperback 1.04017 1.77926 1.6344
thorax -4.69015 0.837701 0.173018
lowerneck -19.9566 -4.70636 -10.1673
upperneck 25.1199 -5.62005 7.43333
head 12.0986 -2.59569 3.58272
rclavicle 2.23633e-016 -2.98177e-015
rhumerus -35.3713 -14.5132 -78.4918
rradius 29.765
rwrist 11.0994
rhand -10.2439 9.74107
rfingers 7.12502
rthumb 15.7487 -19.6382
lclavicle 2.23633e-016 -2.98177e-015
lhumerus -35.5167 1.03919 84.9599
lradius 34.158
lwrist -8.01035
lhand -14.0931 25.535
lfingers 7.12502
lthumb 12.0393 55.1687
rfemur -6.07488 -0.276491 28.1419
rtibia 24.4751
rfoot -13.0231 5.07912
rtoes 12.2298
lfemur -16.6749 2.2059 -16.1105
ltibia 60.1832
lfoot -5.56788 -9.69253
ltoes -16.1568
272
root -0.502607 17.9764 4.26184 1.24537 -48.6186 -4.52004
lowerback 10.3992 1.10798 2.45955
upperback 1.0286 1.8108 1.64725
thorax -4.7357 0.848943 0.0749864
lowerneck -20.0632 -4.65525 -10.1173
upperneck 25.2444 -5.52453 7.31614
head 12.1529 -2.56211 3.54749
rclavicle 1.07244e-013 -2.5842e-015
rhumerus -35.0663 -14.0895 -78.6572
rradius 30.1791
rwrist 10.823
rhand -10.3543 9.62964
rfingers 7.12502
rthumb 15.6424 -19.758
lclavicle 1.07244e-013 -2.5842e-015
lhumerus -35.5966 1.02564 85.0222
lradius 34.3572
lwrist -8.07192
lhand -14.1544 25.4018
lfingers 7.12502
lthumb 11.9803 55.0389
rfemur -5.52406 -0.0389371 28.3219
rtibia 24.5256
rfoot -13.1833 4.765
rtoes 8.63281
lfemur -17.7022 2.24229 -16.0397
ltibia 59.6815
lfoot -6.29966 -8.65554
ltoes -16.9595
273
root -0.608136 17.9728 4.35483 1.28625 -48.6182 -4.61246
lowerback 10.4702 1.15526 2.57686
upperback 0.996567 1.89013 1.63175
thorax -4.80338 0.88467 -0.0201689
lowerneck -19.9122 -4.67767 -10.2822
upperneck 25.1856 -5.56397 7.48271
head 12.1151 -2.57737 3.63268
rclavicle 1.4238e-014 1.03368e-014
rhumerus -34.9021 -13.4048 -78.8901
rradius 30.775
rwrist 10.1155
rhand -10.4189 9.45227
rfingers 7.12502
rthumb 15.5802 -19.9402
lclavicle 1.4238e-014 1.03368e-014
lhumerus -35.6724 0.958847 85.0718
lradius 34.537
lwrist -8.24441
lhand -14.4449 25.4624
lfingers 7.12502
lthumb 11.7001 55.1157
rfemur -4.95724 0.220271 28.4528
rtibia 24.5287
rfoot -13.5868 4.34653
rtoes 7.54018
lfemur -18.723 2.21824 -16.0105
ltibia 59.0502
lfoot -6.5237 -8.18415
ltoes -14.3632
274
root -0.712002 17.9623 4.44837 1.3646 -48.6389 -4.72346
lowerback 10.5004 1.22366 2.76536
upperback 0.962917 2.00232 1.56959
thorax -4.84485 0.935045 -0.207826
lowerneck -19.6705 -4.71647 -10.375
upperneck 25.0346 -5.64953 7.63046
head 12.0252 -2.60965 3.689
rclavicle -6.22444e-014 -1.96797e-014
rhumerus -34.6267 -13.1413 -78.9988
rradius 31.0747
rwrist 9.88207
rhand -10.5605 9.68785
rfingers 7.12502
rthumb 15.4438 -19.7152
lclavicle -6.22444e-014 -1.96797e-014
lhumerus -35.6945 0.71956 85.1083
lradius 34.6132
lwrist -8.28185
lhand -14.7191 25.5187
lfingers 7.12502
lthumb 11.4357 55.1868
rfemur -4.42848 0.356723 28.608
rtibia 24.4782
rfoot -13.9397 3.98208
rtoes 7.60585
lfemur -19.6815 2.24694 -16.0028
ltibia 58.2561
lfoot -7.05919 -7.58611
ltoes -12.9888
275
root -0.812859 17.9439 4.54112 1.46889 -48.6706 -4.81839
lowerback 10.4795 1.28423 2.95745
upperback 0.967612 2.09946 1.47536
thorax -4.81557 0.97875 -0.426971
lowerneck -19.697 -4.74348 -10.2856
upperneck 25.0096 -5.72917 7.68473
head 12.028 -2.62872 3.6805
rclavicle -4.03781e-014 9.14409e-015
rhumerus -34.2286 -13.0811 -79.1272
rradius 31.2956
rwrist 9.82092
rhand -10.694 9.91836
rfingers 7.12502
rthumb 15.3153 -19.4945
lclavicle -4.03781e-014 9.14409e-015
lhumerus -35.5617 0.418816 85.0869
lradius 34.6287
lwrist -8.20567
lhand -14.6019 25.2614
lfingers 7.12502
lthumb 11.5487 54.9233
rfemur -3.9477 0.468143 28.7492
rtibia 24.4226
rfoot -14.3613 3.67097
rtoes 7.87411
lfemur -20.5738 2.38647 -16.0363
ltibia 57.2944
lfoot -7.8731 -6.75803
ltoes -13.9095
276
root -0.916326 17.9279 4.63557 1.63637 -48.7465 -5.00833
lowerback 10.4704 1.36152 3.17733
upperback 0.95161 2.22561 1.43279
thorax -4.81378 1.03606 -0.612393
lowerneck -19.8022 -4.7733 -10.2216
upperneck 25.1284 -5.79088 7.68644
head 12.0999 -2.64875 3.66182
rclavicle -9.60503e-014 -2.5842e-015
rhumerus -33.9318 -12.953 -79.2066
rradius 31.6042
rwrist 9.68957
rhand -10.655 10.1419
rfingers 7.12502
rthumb 15.3529 -19.2681
lclavicle -9.60503e-014 -2.5842e-015
lhumerus -35.5242 0.0596984 85.1402
lradius 34.7408
lwrist -8.00686
lhand -14.6029 24.7651
lfingers 7.12502
lthumb 11.5477 54.4269
rfemur -3.43654 0.428888 28.9023
rtibia 24.3871
rfoot -14.8153 3.70304
rtoes 7.38969
lfemur -21.3535 2.53572 -15.9804
ltibia 56.1527
lfoot -8.43047 -6.1425
ltoes -13.2894
277
root -1.01976 17.9129 4.73136 1.82086 -48.8052 -5.19889
lowerback 10.429 1.4227 3.35316
upperback 0.928147 2.32615 1.43215
thorax -4.80506 1.08206 -0.724852
lowerneck -19.8834 -4.75894 -10.0752
upperneck 25.2314 -5.76366 7.50668
head 12.1421 -2.64421 3.57408
rclavicle 2.75938e-014 7.7526e-015
rhumerus -33.693 -12.5974 -79.2746
rradius 32.0721
rwrist 9.4604
rhand -10.4717 10.0376
rfingers 7.12502
rthumb 15.5294 -19.3588
lclavicle 2.75938e-014 7.7526e-015
lhumerus -35.5956 -0.136068 85.2074
lradius 34.9815
lwrist -7.7776
lhand -14.4933 25.1928
lfingers 7.12502
lthumb 11.6534 54.8488
rfemur -2.92402 0.378196 29.0311
rtibia 24.3179
rfoot -15.3333 3.67155
rtoes 8.04747
lfemur -22.0671 2.5759 -15.9391
ltibia 54.8183
lfoot -8.91446 -5.56129
ltoes -11.942
278
root -1.12125 17.9012 4.82441 2.0243 -48.8885 -5.36805
lowerback 10.377 1.47852 3.49235
upperback 0.903908 2.41466 1.42793
thorax -4.79247 1.12294 -0.818344
lowerneck -19.8762 -4.72427 -9.93329
upperneck 25.2069 -5.71903 7.37036
head 12.1166 -2.62746 3.5047
rclavicle 2.36802e-014 -1.07344e-014
rhumerus -33.4336 -11.9387 -79.4496
rradius 32.5805
rwrist 8.9432
rhand -10.4799 9.88114
rfingers 7.12502
rthumb 15.5215 -19.5159
lclavicle 2.36802e-014 -1.07344e-014
lhumerus -35.5804 -0.191244 85.1791
lradius 35.1281
lwrist -7.72466
lhand -14.336 25.3379
lfingers 7.12502
lthumb 11.8051 54.9852
rfemur -2.38473 0.54181 29.1831
rtibia 24.1008
rfoot -15.8384 3.31951
rtoes 8.72183
lfemur -22.7221 2.54738 -15.9273
ltibia 53.2893
lfoot -9.23111 -4.58304
ltoes -10.9188
279
root -1.22256 17.897 4.92089 2.09009 -48.9707 -5.38727
lowerback 10.367 1.51223 3.57581
upperback 0.860415 2.46837 1.382
thorax -4.82491 1.14655 -0.920833
lowerneck -19.8357 -4.70593 -9.83914
upperneck 25.18 -5.70165 7.28671
head 12.09 -2.62178 3.4593
rclavicle -1.55176e-014 -3.00165e-014
rhumerus -33.1499 -11.5408 -79.5705
rradius 32.8982
rwrist 8.8343
rhand -10.6789 9.90062
rfingers 7.12502
rthumb 15.3298 -19.5112
lclavicle -1.55176e-014 -3.00165e-014
lhumerus -35.5904 -0.218592 85.1413
lradius 35.1397
lwrist -7.82684
lhand -14.4031 25.0486
lfingers 7.12502
lthumb 11.7404 54.6996
rfemur -1.72927 0.616718 29.1995
rtibia 23.7406
rfoot -16.2621 3.07853
rtoes 7.84639
lfemur -23.2152 2.43034 -16.0355
ltibia 51.5584
lfoot -9.58572 -3.34858
ltoes -11.5916
280
root -1.32666 17.8986 5.01838 2.12513 -49.0593 -5.41733
lowerback 10.3783 1.55525 3.61839
upperback 0.831507 2.53155 1.36731
thorax -4.85653 1.17591 -0.969665
lowerneck -19.8545 -4.7005 -9.8504
upperneck 25.1909 -5.6819 7.26498
head 12.0957 -2.61641 3.4563
rclavicle 1.35186e-013 8.74653e-015
rhumerus -32.8621 -11.2491 -79.6284
rradius 33.2045
rwrist 8.87799
rhand -10.9525 9.86224
rfingers 7.12502
rthumb 15.0663 -19.5695
lclavicle 1.35186e-013 8.74653e-015
lhumerus -35.6096 -0.0554062 85.1205
lradius 35.1388
lwrist -7.95586
lhand -14.052 24.974
lfingers 7.12502
lthumb 12.079 54.6053
rfemur -0.9893 0.633481 29.2159
rtibia 23.3148
rfoot -16.5349 2.91577
rtoes 7.42027
lfemur -23.5516 2.28691 -16.1158
ltibia 49.6378
lfoot -9.83284 -2.23582
ltoes -12.7174
281
root -1.42885 17.8988 5.11589 2.32017 -49.1097 -5.62076
lowerback 10.3687 1.6023 3.81196
upperback 0.815611 2.61727 1.38874
thorax -4.85679 1.214 -1.0675
lowerneck -19.8879 -4.71315 -9.98302
upperneck 25.1577 -5.67887 7.36669
head 12.0972 -2.6136 3.51744
rclavicle 1.02511e-013 1.61016e-014
rhumerus -32.5557 -10.9146 -79.64
rradius 33.5348
rwrist 8.69114
rhand -10.988 9.89532
rfingers 7.12502
rthumb 15.032 -19.539
lclavicle 1.02511e-013 1.61016e-014
lhumerus -35.6028 0.202677 85.1187
lradius 35.2098
lwrist -8.19198
lhand -13.5592 25.2988
lfingers 7.12502
lthumb 12.5541 54.9016
rfemur -0.299317 0.662579 29.3596
rtibia 22.9029
rfoot -16.6907 2.81181
rtoes 7.26644
lfemur -23.8616 2.13281 -16.0487
ltibia 47.5925
lfoot -9.73684 -1.18369
ltoes -12.9566
